<?xml version="1.0" standalone="no"?>
<!DOCTYPE svg PUBLIC "-//W3C//DTD SVG 20010904//EN"
 "http://www.w3.org/TR/2001/REC-SVG-20010904/DTD/svg10.dtd">
<svg version="1.0" xmlns="http://www.w3.org/2000/svg"
 width="1000.000000pt" height="1000.000000pt" viewBox="0 0 1000.000000 1000.000000"
 preserveAspectRatio="xMidYMid meet">
<metadata>
Created by potrace 1.11, written by Peter Selinger 2001-2013
</metadata>
<g transform="translate(0.000000,1000.000000) scale(0.100000,-0.100000)"
fill="#000000" stroke="none">
<path d="M951 9367 c-110 -15 -232 -101 -281 -196 -45 -89 -46 -118 -45 -996
0 -810 1 -831 20 -864 33 -56 68 -76 135 -76 63 0 95 16 134 69 21 27 21 36
23 869 l2 842 26 23 26 22 807 1 c444 1 824 3 844 4 63 4 121 51 135 109 17
74 -9 137 -73 177 l-36 22 -832 1 c-458 1 -856 -2 -885 -7z"/>
<path d="M7422 9366 c-36 -11 -94 -55 -87 -66 3 -4 0 -10 -6 -12 -6 -2 -14
-27 -16 -55 -7 -68 24 -125 82 -153 40 -19 62 -20 831 -20 l791 0 21 -23 22
-24 1 -809 c0 -782 1 -810 19 -850 53 -110 211 -112 274 -4 20 34 21 48 21
845 0 446 -3 832 -7 859 -20 131 -121 250 -254 298 -58 20 -73 21 -862 22
-441 0 -814 -3 -830 -8z"/>
<path d="M4875 9346 c-41 -29 -53 -70 -53 -176 0 -52 -1 -108 -1 -125 l-1 -30
-118 0 c-105 -1 -213 -8 -282 -20 -14 -2 -43 -6 -65 -10 -122 -18 -411 -110
-516 -165 -8 -4 -40 -20 -70 -36 -58 -29 -221 -125 -229 -135 -3 -3 -27 -21
-55 -39 -27 -19 -51 -37 -53 -42 -2 -4 -7 -8 -11 -8 -16 0 -239 -211 -299
-284 -103 -123 -210 -291 -280 -436 -34 -72 -105 -260 -117 -310 -35 -149 -49
-234 -61 -370 -12 -137 -5 -446 12 -514 3 -12 6 -39 8 -61 2 -22 13 -89 25
-150 22 -114 23 -121 42 -195 6 -25 12 -52 14 -60 2 -8 14 -46 26 -85 12 -38
23 -74 25 -80 3 -17 61 -177 83 -233 21 -54 21 -72 -3 -72 -22 0 -100 -42
-144 -77 -74 -60 -135 -174 -158 -294 -10 -55 -11 -234 -2 -307 41 -311 114
-439 314 -544 49 -26 92 -47 97 -47 55 -4 87 -16 88 -32 1 -11 2 -22 3 -26 1
-5 6 -28 10 -53 10 -58 60 -251 81 -315 104 -305 258 -562 459 -760 94 -93
244 -212 306 -241 19 -9 37 -20 40 -23 5 -6 100 -55 110 -57 3 0 27 -10 54
-22 57 -26 190 -72 226 -78 14 -3 39 -9 55 -14 30 -9 62 -16 125 -26 19 -3 42
-7 50 -9 14 -4 128 -16 189 -19 l24 -2 -1 -124 c0 -141 9 -175 57 -210 62 -43
137 -21 174 51 14 27 17 57 16 152 -1 65 2 122 7 126 5 5 51 12 101 15 51 4
98 8 105 11 7 2 33 6 57 9 93 12 145 81 119 159 -26 77 -69 95 -194 78 -43 -6
-105 -13 -136 -16 l-58 -5 0 52 c-3 363 -1 481 9 491 6 6 11 8 11 5 0 -3 28 0
63 9 34 8 72 17 84 19 41 8 167 56 199 75 74 45 82 145 16 199 -45 37 -84 39
-157 5 -30 -13 -65 -27 -77 -29 -13 -2 -36 -9 -53 -15 -16 -5 -45 -12 -62 -15
-28 -4 -33 -1 -33 17 -1 24 -1 2820 0 2959 l0 87 59 12 c79 15 120 50 128 105
12 88 -50 151 -138 141 -46 -6 -49 -4 -49 16 -3 155 0 1580 3 1583 2 2 19 -1
38 -6 38 -11 82 -5 115 17 27 17 54 72 49 98 -2 11 -4 28 -4 37 -1 9 -14 30
-30 46 -26 26 -50 36 -111 48 -42 8 -50 11 -55 15 -3 3 -7 71 -8 150 -2 79 -6
151 -8 160 -20 69 -123 100 -184 55z m-54 -588 c1 -17 1 -1611 0 -1661 -1 -21
-4 -36 -8 -34 -5 2 -39 -1 -78 -8 -38 -6 -85 -11 -102 -11 -18 1 -33 -1 -33
-4 0 -3 -26 -6 -58 -7 -31 -1 -147 -4 -257 -7 -327 -10 -477 -50 -679 -184
-70 -46 -226 -197 -226 -218 0 -7 -3 -14 -7 -16 -11 -5 -53 -66 -53 -77 0 -5
-4 -11 -8 -13 -14 -5 -108 -207 -132 -283 -12 -38 -25 -77 -28 -85 -7 -19 -6
-17 -17 -65 -4 -22 -10 -46 -12 -52 -8 -32 -12 -49 -12 -65 -2 -44 -20 -9 -55
105 -41 132 -45 147 -47 162 0 6 -5 17 -10 26 -4 9 -11 31 -14 50 -3 19 -12
61 -21 94 -14 59 -20 89 -30 170 -3 22 -7 51 -10 65 -18 94 -25 422 -11 540
10 88 16 133 22 160 3 14 8 36 11 50 32 157 118 366 217 525 94 150 272 348
407 451 36 27 67 51 70 54 20 21 300 184 300 175 0 -2 26 9 58 25 60 29 218
82 299 101 27 6 57 13 68 15 130 30 454 46 456 22z m0 -1971 c0 -39 0 -2969 0
-2979 -2 -14 -126 17 -216 53 -80 33 -104 35 -151 13 -71 -34 -81 -157 -16
-202 55 -38 193 -85 327 -112 l60 -12 -2 -236 c-1 -130 -2 -252 -3 -270 l0
-33 -62 6 c-35 4 -76 9 -93 10 -16 2 -46 7 -65 10 -19 4 -44 9 -55 11 -11 2
-47 10 -80 19 -62 16 -70 18 -95 27 -8 3 -37 14 -65 23 -52 19 -246 112 -255
124 -3 3 -25 19 -50 35 -131 84 -259 214 -375 380 -103 148 -222 432 -259 616
-3 14 -7 36 -10 50 -15 67 -22 118 -31 200 -10 94 -65 140 -183 151 -40 4 -80
13 -88 19 -8 7 -14 10 -14 6 0 -12 -85 46 -113 77 -30 33 -57 87 -61 122 -2
11 -6 34 -10 50 -16 72 -19 107 -21 225 -3 155 11 207 71 266 24 22 48 41 56
41 7 0 25 3 39 6 21 4 31 -1 48 -24 52 -70 156 -81 221 -22 51 45 57 67 59
203 1 69 3 132 5 140 3 8 7 44 11 79 8 91 48 254 85 347 79 198 185 345 315
434 51 35 177 96 216 104 13 3 42 10 64 16 22 6 103 12 180 15 232 7 379 15
405 20 14 3 56 7 95 10 38 3 70 7 72 8 1 2 11 3 23 4 16 1 20 -4 21 -30z"/>
<path d="M4108 5633 c-65 -27 -73 -50 -76 -222 -2 -104 0 -163 9 -182 37 -91
169 -98 216 -11 18 33 20 53 18 172 -3 185 -1 177 -37 214 -38 39 -82 48 -130
29z"/>
<path d="M5396 8795 c-20 -18 -37 -37 -37 -41 -13 -91 8 -131 91 -176 58 -31
195 -123 218 -145 46 -45 123 -50 172 -11 26 21 42 57 45 98 1 25 -34 89 -56
100 -18 10 -35 23 -73 55 -15 13 -30 22 -146 92 -120 72 -160 77 -214 28z"/>
<path d="M6009 8501 c-33 -18 -69 -72 -69 -104 0 -33 33 -89 62 -107 16 -10
59 -21 96 -24 98 -10 128 -15 222 -41 57 -15 93 -19 108 -14 12 5 22 5 22 2 0
-12 52 42 65 67 33 67 -18 160 -96 173 -13 2 -31 6 -39 10 -16 6 -65 18 -90
23 -179 33 -242 36 -281 15z"/>
<path d="M6663 8295 c-83 -36 -87 -170 -6 -217 15 -9 38 -25 49 -35 12 -10 36
-29 54 -43 38 -28 38 -29 101 -96 63 -68 86 -77 154 -60 52 13 92 82 81 139
-4 20 -26 56 -56 89 -56 63 -202 188 -219 188 -6 0 -11 4 -11 8 0 12 -49 34
-85 38 -16 2 -44 -3 -62 -11z"/>
<path d="M7103 7775 c-59 -26 -85 -115 -51 -178 12 -23 48 -125 54 -152 29
-145 48 -188 93 -213 59 -32 127 -15 162 40 16 27 19 43 14 87 -11 103 -88
343 -124 385 -38 44 -92 56 -148 31z"/>
<path d="M6005 7592 c-57 -13 -94 -64 -90 -125 3 -50 28 -83 90 -116 81 -43
127 -75 180 -125 54 -52 101 -77 131 -71 10 2 26 4 34 4 41 2 95 81 86 126 -3
11 -5 26 -5 34 -1 12 -100 114 -133 136 -8 6 -47 31 -85 57 -98 67 -160 91
-208 80z"/>
<path d="M5760 7413 c-30 -5 -90 -34 -90 -45 0 -5 -5 -8 -12 -8 -6 0 -19 -6
-27 -14 -9 -8 -67 -40 -129 -72 -121 -60 -152 -90 -152 -147 0 -75 66 -135
137 -124 44 8 208 90 301 151 97 65 124 116 96 185 -10 25 -27 43 -52 56 -44
23 -41 22 -72 18z"/>
<path d="M6466 7108 c-28 -15 -53 -44 -60 -66 -16 -48 -13 -67 15 -125 30 -61
69 -159 105 -265 26 -75 63 -99 144 -94 51 4 107 83 96 138 -21 107 -128 355
-170 393 -29 27 -98 37 -130 19z"/>
<path d="M7253 7108 c-32 -8 -65 -45 -76 -83 -3 -11 -7 -85 -8 -165 -2 -80 -6
-158 -9 -175 -17 -82 39 -155 119 -155 77 0 113 42 126 145 12 100 14 325 3
358 -23 64 -85 95 -155 75z"/>
<path d="M6648 6443 c-25 -16 -72 -85 -64 -94 6 -6 18 -173 21 -289 2 -112 17
-149 70 -177 49 -26 150 8 164 55 7 23 6 315 -2 377 -8 69 -24 102 -62 125
-39 24 -91 25 -127 3z"/>
<path d="M7195 6433 c-71 -14 -90 -35 -129 -148 -16 -44 -48 -122 -72 -174
-49 -104 -53 -131 -24 -179 27 -43 77 -67 125 -58 62 12 97 62 168 241 20 50
41 104 48 120 24 61 20 119 -10 154 -22 26 -79 49 -106 44z"/>
<path d="M6902 5719 c-32 -6 -80 -48 -84 -72 -12 -97 13 -138 105 -172 43 -16
107 -73 107 -95 0 -5 9 -34 21 -64 14 -40 29 -61 53 -76 84 -51 186 6 186 104
0 80 -72 220 -145 285 -32 27 -155 96 -155 86 0 -2 -12 0 -27 4 -16 4 -43 4
-61 0z"/>
<path d="M5704 5638 c-78 -22 -93 -59 -93 -238 0 -166 9 -195 68 -228 65 -37
144 -8 171 63 6 15 10 89 10 167 0 149 -13 206 -52 216 -10 2 -18 8 -18 12 0
12 -53 17 -86 8z"/>
<path d="M7145 5090 c-39 -9 -71 -29 -84 -55 -6 -11 -20 -60 -32 -110 -22 -92
-47 -145 -78 -168 -10 -6 -30 -29 -43 -49 -21 -30 -24 -44 -18 -75 9 -54 25
-78 60 -95 26 -13 44 -14 108 -6 27 3 130 119 160 180 16 35 40 109 53 166 22
99 22 104 5 139 -28 59 -75 85 -131 73z"/>
<path d="M6645 4617 c-59 -21 -73 -49 -89 -172 -2 -16 -10 -59 -16 -95 -7 -36
-14 -74 -16 -85 -2 -11 -10 -47 -19 -80 -14 -54 -14 -63 1 -96 27 -63 90 -86
166 -63 36 11 68 80 93 199 46 212 51 293 24 339 -30 51 -90 73 -144 53z"/>
<path d="M6420 3888 c-17 -13 -47 -50 -64 -83 -43 -79 -60 -109 -66 -115 -5
-5 -74 -106 -102 -149 -55 -86 2 -191 104 -191 52 0 87 34 177 170 87 132 130
215 136 260 5 42 -23 91 -66 112 -46 24 -80 23 -119 -4z"/>
<path d="M5995 3332 c-18 -3 -152 -87 -165 -103 -3 -3 -47 -27 -98 -52 -110
-55 -125 -65 -140 -93 -44 -82 18 -184 108 -179 49 3 198 75 318 156 120 80
147 129 111 200 -27 54 -81 83 -134 71z"/>
<path d="M710 2699 c-22 -10 -47 -33 -61 -55 l-24 -39 0 -805 c0 -443 3 -827
7 -854 16 -106 89 -212 182 -265 102 -58 96 -58 761 -57 677 1 647 -1 697 68
32 46 32 130 -1 177 -50 70 -39 69 -689 69 -604 -1 -622 0 -637 40 -3 8 -6
373 -6 810 0 748 -1 798 -18 836 -22 49 -44 70 -91 84 -44 14 -73 12 -120 -9z"/>
<path d="M9155 2626 c-36 -16 -70 -52 -84 -87 -6 -17 -10 -306 -11 -788 0
-418 -3 -767 -6 -775 -14 -38 -29 -38 -816 -40 -723 -1 -765 -2 -793 -19 -104
-63 -104 -211 0 -274 28 -17 70 -18 800 -19 424 0 790 3 814 8 152 28 282 158
309 309 4 24 7 390 7 814 -1 853 2 807 -66 856 -39 27 -112 35 -154 15z"/>
<path d="M2546 2134 c-4 -9 43 -162 105 -343 61 -179 141 -416 178 -526 l68
-200 152 -3 c83 -1 151 -1 151 1 0 1 34 101 76 222 225 653 286 836 280 850
-4 12 -29 15 -140 15 l-135 0 -26 -87 c-14 -49 -35 -117 -45 -153 -11 -36 -47
-155 -81 -265 -61 -200 -67 -222 -68 -239 -2 -21 -12 6 -46 120 -20 65 -47
155 -60 199 -22 72 -108 364 -121 408 -5 15 -21 17 -144 17 -118 0 -139 -2
-144 -16z"/>
<path d="M3972 2142 c-10 -7 -12 -122 -10 -543 l3 -534 330 0 330 0 0 110 0
110 -192 3 c-175 2 -193 4 -194 20 -1 23 -1 132 0 160 1 22 2 22 159 22 86 0
163 4 170 8 9 6 12 36 10 113 l-3 104 -167 3 c-140 2 -168 5 -169 17 0 8 -1
47 -1 85 0 39 1 77 1 85 1 13 27 15 175 15 129 0 177 3 183 13 12 18 12 190 1
205 -8 9 -83 12 -312 12 -165 0 -307 -4 -314 -8z"/>
<path d="M5075 2138 c-3 -7 -4 -251 -3 -543 l3 -530 124 -3 c81 -2 128 1 137
9 10 8 13 43 13 142 -1 262 -2 247 26 247 46 0 81 -27 125 -97 78 -122 106
-167 146 -235 l39 -68 142 0 c125 0 143 2 151 18 8 13 -15 55 -103 192 -62 96
-134 197 -159 225 -25 27 -46 50 -46 51 0 1 20 14 44 28 92 54 148 148 151
255 5 152 -58 244 -200 296 -42 15 -92 19 -317 23 -218 3 -269 1 -273 -10z
m438 -221 c82 -28 83 -160 2 -213 -15 -10 -54 -19 -95 -22 l-69 -5 -3 34 c-2
19 -2 76 0 127 l3 93 67 -2 c37 -1 80 -6 95 -12z"/>
<path d="M6506 1798 c-70 -194 -158 -433 -193 -530 -36 -97 -63 -184 -60 -192
5 -13 29 -16 146 -16 l139 0 39 120 38 120 170 -2 170 -3 38 -117 38 -118 140
0 c116 0 141 3 145 15 7 17 1 33 -222 658 l-149 417 -155 0 -155 0 -129 -352z
m374 -265 c0 -8 -31 -12 -101 -12 -100 -1 -100 -1 -93 22 34 110 78 247 87
271 10 27 14 20 59 -120 26 -82 48 -154 48 -161z"/>
</g>
</svg>
